<?xml version="1.0" encoding="UTF-8" standalone="no"?>
<svg
   viewBox="0 0 100 100"
   version="1.1"
   id="svg4"
   sodipodi:docname="copy.svg"
   width="100"
   height="100"
   inkscape:version="1.2.1 (9c6d41e410, 2022-07-14)"
   xmlns:inkscape="http://www.inkscape.org/namespaces/inkscape"
   xmlns:sodipodi="http://sodipodi.sourceforge.net/DTD/sodipodi-0.dtd"
   xmlns="http://www.w3.org/2000/svg"
   xmlns:svg="http://www.w3.org/2000/svg">
  <defs
     id="defs8" />
  <sodipodi:namedview
     id="namedview6"
     pagecolor="#505050"
     bordercolor="#ffffff"
     borderopacity="1"
     inkscape:showpageshadow="0"
     inkscape:pageopacity="0"
     inkscape:pagecheckerboard="1"
     inkscape:deskcolor="#505050"
     showgrid="false"
     inkscape:current-layer="svg4" />
  <path
     d="m 46.25,20 c -4.136719,0 -7.5,3.363281 -7.5,7.5 v 26.25 c 0,4.136719 3.363281,7.5 7.5,7.5 H 72.5 c 4.136719,0 7.5,-3.363281 7.5,-7.5 V 27.5 C 80,23.363281 76.636719,20 72.5,20 Z M 27.5,38.75 c -4.136719,0 -7.5,3.363281 -7.5,7.5 V 72.5 c 0,4.136719 3.363281,7.5 7.5,7.5 h 26.25 c 4.136719,0 7.5,-3.363281 7.5,-7.5 V 65 h -7.5 v 7.5 H 27.5 V 46.25 H 35 v -7.5 z"
     id="path2"
     style="stroke-width:1;fill:#000000;fill-opacity:1;stroke:none" />
</svg>
