<?xml version="1.0" encoding="UTF-8" standalone="no"?>
<svg
   viewBox="0 0 100 100"
   version="1.1"
   id="svg135"
   sodipodi:docname="button-external.svg"
   width="100"
   height="100"
   inkscape:version="1.2.1 (9c6d41e410, 2022-07-14)"
   xmlns:inkscape="http://www.inkscape.org/namespaces/inkscape"
   xmlns:sodipodi="http://sodipodi.sourceforge.net/DTD/sodipodi-0.dtd"
   xmlns="http://www.w3.org/2000/svg"
   xmlns:svg="http://www.w3.org/2000/svg">
  <defs
     id="defs139" />
  <sodipodi:namedview
     id="namedview137"
     pagecolor="#505050"
     bordercolor="#ffffff"
     borderopacity="1"
     inkscape:showpageshadow="0"
     inkscape:pageopacity="0"
     inkscape:pagecheckerboard="1"
     inkscape:deskcolor="#505050"
     showgrid="false"
     inkscape:current-layer="svg135" />
  <path
     d="m 61.24194,20 c -1.51142,0 -2.88225,0.91406 -3.46807,2.32031 -0.58582,1.40625 -0.25776,3.01172 0.80844,4.08985 L 63.43292,31.25 43.59695,51.10156 c -1.46456,1.46485 -1.46456,3.84375 0,5.30859 1.46456,1.46485 3.843,1.46485 5.30756,0 l 19.83597,-19.85156 4.85061,4.85157 c 1.07792,1.07812 2.68308,1.39453 4.08905,0.80859 C 79.08612,41.63281 80,40.27344 80,38.75 v -15 C 80,21.67578 78.32455,20 76.25073,20 Z M 29.37317,23.75 C 24.19449,23.75 20,27.94531 20,33.125 v 37.5 C 20,75.80469 24.19449,80 29.37317,80 h 37.49268 c 5.17867,0 9.37316,-4.19531 9.37316,-9.375 V 57.5 c 0,-2.07422 -1.67545,-3.75 -3.74926,-3.75 -2.07381,0 -3.74927,1.67578 -3.74927,3.75 v 13.125 c 0,1.03125 -0.84359,1.875 -1.87463,1.875 H 29.37317 c -1.03105,0 -1.87463,-0.84375 -1.87463,-1.875 v -37.5 c 0,-1.03125 0.84358,-1.875 1.87463,-1.875 h 13.12244 c 2.07381,0 3.74926,-1.67578 3.74926,-3.75 0,-2.07422 -1.67545,-3.75 -3.74926,-3.75 z"
     id="path133"
     style="stroke-width:1;stroke:none;fill:#000000;fill-opacity:1" />
</svg>
