<?xml version="1.0" encoding="UTF-8" standalone="no"?>
<!-- Created with Inkscape (http://www.inkscape.org/) -->

<svg
   width="96"
   height="96"
   viewBox="0 0 25.4 25.4"
   version="1.1"
   id="svg8"
   inkscape:version="1.2.1 (9c6d41e410, 2022-07-14)"
   sodipodi:docname="erythro-bg.svg"
   inkscape:export-filename="erythro-bg.png"
   inkscape:export-xdpi="256"
   inkscape:export-ydpi="256"
   xmlns:inkscape="http://www.inkscape.org/namespaces/inkscape"
   xmlns:sodipodi="http://sodipodi.sourceforge.net/DTD/sodipodi-0.dtd"
   xmlns="http://www.w3.org/2000/svg"
   xmlns:svg="http://www.w3.org/2000/svg"
   xmlns:rdf="http://www.w3.org/1999/02/22-rdf-syntax-ns#"
   xmlns:cc="http://creativecommons.org/ns#"
   xmlns:dc="http://purl.org/dc/elements/1.1/">
  <defs
     id="defs2" />
  <sodipodi:namedview
     id="base"
     pagecolor="#ffffff"
     bordercolor="#666666"
     borderopacity="1.0"
     inkscape:pageopacity="0.0"
     inkscape:pageshadow="2"
     inkscape:zoom="0.35"
     inkscape:cx="400"
     inkscape:cy="560"
     inkscape:document-units="mm"
     inkscape:current-layer="g933"
     showgrid="false"
     fit-margin-top="0"
     fit-margin-left="0"
     fit-margin-right="0"
     fit-margin-bottom="0"
     units="px"
     inkscape:showpageshadow="0"
     inkscape:pagecheckerboard="1"
     inkscape:deskcolor="#d1d1d1" />
  <metadata
     id="metadata5">
    <rdf:RDF>
      <cc:Work
         rdf:about="">
        <dc:format>image/svg+xml</dc:format>
        <dc:type
           rdf:resource="http://purl.org/dc/dcmitype/StillImage" />
      </cc:Work>
    </rdf:RDF>
  </metadata>
  <g
     inkscape:label="Layer 1"
     inkscape:groupmode="layer"
     id="layer1"
     transform="translate(-106.50066,-167.61506)">
    <g
       aria-label="E"
       style="font-style:normal;font-variant:normal;font-weight:normal;font-stretch:normal;font-size:4.93888855px;line-height:4.23333311px;font-family:'Helvetica Neue LT Com';-inkscape-font-specification:'Helvetica Neue LT Com';text-align:center;letter-spacing:0px;word-spacing:0px;text-anchor:middle;fill:#000000;fill-opacity:1;stroke:none;stroke-width:0.26458332px;stroke-linecap:butt;stroke-linejoin:miter;stroke-opacity:1"
       id="text817">
      <g
         id="g933"
         transform="matrix(0.69878788,0,0,0.69878788,38.946544,83.494494)"
         style="stroke-width:0.37863183px">
        <rect
           y="120.38069"
           x="96.673279"
           height="36.348656"
           width="36.348656"
           id="rect903"
           style="color:#000000;clip-rule:nonzero;display:inline;overflow:visible;visibility:visible;opacity:1;isolation:auto;mix-blend-mode:normal;color-interpolation:sRGB;color-interpolation-filters:linearRGB;solid-color:#000000;solid-opacity:1;vector-effect:none;fill:#3e0600;fill-opacity:1;fill-rule:nonzero;stroke:none;stroke-width:1.89315915;stroke-linecap:round;stroke-linejoin:round;stroke-miterlimit:4;stroke-dasharray:none;stroke-dashoffset:0;stroke-opacity:1;paint-order:normal;color-rendering:auto;image-rendering:auto;shape-rendering:auto;text-rendering:auto;enable-background:accumulate" />
        <g
           transform="matrix(1.1445913,0,0,1.1445913,-16.695129,-20.441553)"
           id="g912"
           style="stroke-width:0.330801px">
          <path
             style="font-style:normal;font-variant:normal;font-weight:bold;font-stretch:normal;font-size:33.8667px;line-height:4.23333px;font-family:'Old English Text MT';-inkscape-font-specification:'Old English Text MT Bold';text-align:center;letter-spacing:0px;word-spacing:0px;text-anchor:middle;fill:#ffcec9;fill-opacity:1;stroke:none;stroke-width:0.330801px;stroke-linecap:butt;stroke-linejoin:miter;stroke-opacity:1"
             d="m 116.02208,129.72289 -7.22643,6.1681 v 7.60677 c 0,0.0915 -0.003,0.16132 -0.003,0.24856 0.67519,0.67898 1.35387,1.21554 2.07688,1.63401 0.1855,-0.1955 0.35723,-0.38394 0.50591,-0.55965 0.34175,-0.38585 0.55673,-0.74414 0.64492,-1.07487 0.0992,-0.33073 0.14883,-0.92053 0.14883,-1.7694 v -7.67292 l 2.01745,-1.68672 v 14.55068 c 0.24579,0.0392 0.49977,0.0722 0.76067,0.10025 v -6.51499 h 6.28386 l 1.80247,-3.175 h -4.46484 l 5.70508,-5.77123 -0.41342,-0.49609 c -0.6835,0.0992 -1.25677,0.14883 -1.71979,0.14883 -0.89297,0 -1.80246,-0.12678 -2.72851,-0.38034 -0.91501,-0.25356 -2.04501,-0.70556 -3.38998,-1.35599 z m -1.07487,3.02617 c 1.06936,0.52917 1.97335,0.90951 2.71198,1.14102 0.74965,0.23151 1.70326,0.42994 2.86081,0.59531 l -5.57279,5.65547 z"
             id="path819-77"
             inkscape:connector-curvature="0"
             sodipodi:nodetypes="ccsccccsccccccccccsccccccc" />
          <path
             inkscape:connector-curvature="0"
             d="m 111.65233,127.59087 0.33073,0.51263 c -1.83003,1.16857 -3.18051,2.51354 -4.05143,4.03489 -0.85989,1.51033 -1.28984,3.13091 -1.28984,4.86172 0,2.22691 0.76068,4.3546 2.28203,6.38307 2.19322,2.60644 4.23613,3.60467 7.50755,3.86953 l 1.05833,0.0496 c 1.56545,0 3.11988,-0.39136 4.66329,-1.17409 1.16857,-0.58429 2.37022,-1.4993 3.60494,-2.74505 l 0.39688,0.62839 c -1.27882,1.9954 -2.68993,3.47817 -4.23334,4.4483 -1.88515,1.17961 -4.03489,1.76941 -6.44921,1.76941 -3.80338,0 -6.80751,-1.31189 -9.01237,-3.93568 -1.75286,-2.08359 -2.6293,-4.52548 -2.6293,-7.32565 0,-1.74184 0.35829,-3.36241 1.07487,-4.86172 0.71658,-1.51033 1.72531,-2.86081 3.02617,-4.05143 0.92604,-0.83785 2.16628,-1.65916 3.7207,-2.46393 z"
             style="font-style:normal;font-variant:normal;font-weight:bold;font-stretch:normal;font-size:33.8667px;line-height:4.23333px;font-family:'Old English Text MT';-inkscape-font-specification:'Old English Text MT Bold';text-align:center;letter-spacing:0px;word-spacing:0px;text-anchor:middle;fill:#da4331;fill-opacity:1;stroke:none;stroke-width:0.330801px;stroke-linecap:butt;stroke-linejoin:miter;stroke-opacity:1"
             id="path819-7-9-5"
             sodipodi:nodetypes="cccscccccccscsccc" />
        </g>
      </g>
    </g>
  </g>
</svg>
