<?xml version="1.0" encoding="UTF-8" standalone="no"?>
<svg
   width="100"
   height="100"
   viewBox="0 0 100 100"
   version="1.1"
   id="svg8"
   inkscape:version="1.2.1 (9c6d41e410, 2022-07-14)"
   sodipodi:docname="icon-discord.svg"
   xmlns:inkscape="http://www.inkscape.org/namespaces/inkscape"
   xmlns:sodipodi="http://sodipodi.sourceforge.net/DTD/sodipodi-0.dtd"
   xmlns="http://www.w3.org/2000/svg"
   xmlns:svg="http://www.w3.org/2000/svg">
  <defs
     id="defs2" />
  <sodipodi:namedview
     inkscape:snap-object-midpoints="true"
     inkscape:snap-smooth-nodes="true"
     inkscape:snap-intersection-paths="true"
     inkscape:snap-bbox-edge-midpoints="true"
     inkscape:snap-midpoints="true"
     inkscape:snap-page="true"
     inkscape:snap-bbox-midpoints="true"
     inkscape:bbox-nodes="true"
     id="base"
     pagecolor="#ffffff"
     bordercolor="#666666"
     borderopacity="1.0"
     inkscape:pageopacity="0.0"
     inkscape:pageshadow="2"
     inkscape:zoom="0.35"
     inkscape:cx="400"
     inkscape:cy="560"
     inkscape:document-units="px"
     inkscape:current-layer="layer1"
     inkscape:document-rotation="0"
     showgrid="false"
     inkscape:snap-bbox="true"
     inkscape:snap-global="true"
     units="px"
     width="100px"
     inkscape:pagecheckerboard="true"
     inkscape:showpageshadow="false"
     borderlayer="true"
     inkscape:deskcolor="#d1d1d1" />
  <g
     inkscape:label="Layer 1"
     inkscape:groupmode="layer"
     id="layer1">
    <path
       d="m 84.709521,18.452164 a 82.703938,82.703938 0 0 0 -20.630758,-6.347321 56.677563,56.677563 0 0 0 -2.642751,5.37202 76.828537,76.828537 0 0 0 -22.895974,0 56.921388,56.921388 0 0 0 -2.64275,-5.37202 83.285972,83.285972 0 0 0 -20.64649,6.363051 C 2.1943517,37.785143 -1.3450465,56.622607 0.42465256,75.192649 v 0 a 83.160127,83.160127 0 0 0 25.30276444,12.702507 61.113609,61.113609 0 0 0 5.419212,-8.738381 53.814583,53.814583 0 0 1 -8.533882,-4.07424 c 0.715744,-0.519112 1.415759,-1.053954 2.092177,-1.573066 a 59.438294,59.438294 0 0 0 50.589798,0 c 0.684284,0.558438 1.384298,1.093281 2.092178,1.573066 a 54.019082,54.019082 0 0 1 -8.549613,4.082106 60.563036,60.563036 0 0 0 5.419212,8.730515 82.782591,82.782591 0 0 0 25.318495,-12.694641 v 0 C 101.65144,53.665243 96.02773,35.000817 84.709521,18.452164 Z M 33.388248,63.772191 c -4.931562,0 -9.005802,-4.475372 -9.005802,-9.981103 0,-5.50573 3.932664,-10.020429 8.990071,-10.020429 5.057407,0 9.100186,4.514699 9.013667,10.020429 -0.08652,5.505731 -3.971991,9.981103 -8.997936,9.981103 z m 33.223151,0 c -4.939427,0 -8.997937,-4.475372 -8.997937,-9.981103 0,-5.50573 3.932665,-10.020429 8.997937,-10.020429 5.065272,0 9.07659,4.514699 8.990071,10.020429 -0.08652,5.505731 -3.964126,9.981103 -8.990071,9.981103 z"
       id="discord" />
  </g>
</svg>
